<svg width="60" height="60" viewBox="0 0 60 60" fill="none" xmlns="http://www.w3.org/2000/svg">
<g id="Frame" clip-path="url(#clip0_1_5678)">
<path id="Vector" d="M60 0H0V60H60V0Z" fill="white" fill-opacity="0.01"/>
<g id="light_mode">
<path id="icon" d="M30 35C32.0833 35 33.8542 34.2708 35.3125 32.8125C36.7708 31.3542 37.5 29.5833 37.5 27.5C37.5 25.4167 36.7708 23.6458 35.3125 22.1875C33.8542 20.7292 32.0833 20 30 20C27.9167 20 26.1458 20.7292 24.6875 22.1875C23.2292 23.6458 22.5 25.4167 22.5 27.5C22.5 29.5833 23.2292 31.3542 24.6875 32.8125C26.1458 34.2708 27.9167 35 30 35ZM30 40C26.5417 40 23.5938 38.7813 21.1563 36.3438C18.7188 33.9063 17.5 30.9583 17.5 27.5C17.5 24.0417 18.7188 21.0938 21.1563 18.6563C23.5938 16.2188 26.5417 15 30 15C33.4583 15 36.4063 16.2188 38.8438 18.6563C41.2813 21.0938 42.5 24.0417 42.5 27.5C42.5 30.9583 41.2813 33.9063 38.8438 36.3438C36.4063 38.7813 33.4583 40 30 40ZM12.5 30H2.5V25H12.5V30ZM57.5 30H47.5V25H57.5V30ZM27.5 10V0H32.5V10H27.5ZM27.5 55V45H32.5V55H27.5ZM16 16.875L9.6875 10.8125L13.25 7.125L19.25 13.375L16 16.875ZM46.75 47.875L40.6875 41.5625L44 38.125L50.3125 44.1875L46.75 47.875ZM40.625 13.5L46.6875 7.1875L50.375 10.75L44.125 16.75L40.625 13.5ZM9.625 44.25L15.9375 38.1875L19.375 41.5L13.3125 47.8125L9.625 44.25Z" fill="#FEF7FF"/>
</g>
</g>
<defs>
<clipPath id="clip0_1_5678">
<rect width="60" height="60" fill="white"/>
</clipPath>
</defs>
</svg>
